{"title":"3 Weeks To Daytona 2013 LIMITED DVDRip Xvid AC3 UnKnOwN","uid":8192655,"size":1068028304,"categoryP":"video","categoryS":"movies","magnet":"?xt=urn:btih:67205119cbca82b4d2b8372c72745518dcdec6b9&amp;dn=3+Weeks+To+Daytona+2013+LIMITED+DVDRip+Xvid+AC3+UnKnOwN&amp;tr=udp%3A%2F%2Ftracker.openbittorrent.com%3A80&amp;tr=udp%3A%2F%2Fopen.demonii.com%3A1337&amp;tr=udp%3A%2F%2Ftracker.coppersurfer.tk%3A6969&amp;tr=udp%3A%2F%2Fexodus.desync.com%3A6969","seeders":0,"leechers":1,"uploader":"LegendET","files":2,"time":1361860921,"description":" &lt;a href=&quot;http://www.shotpix.com/images/69486885028359426922.jpg&quot; rel=&quot;nofollow&quot; target=&quot;_NEW&quot;&gt;http://www.shotpix.com/images/69486885028359426922.jpg&lt;/a&gt;\n\n\n\n3 Weeks To Daytona 2013 LIMITED DVDRip Xvid AC3 UnKnOwN\n\nRuntime ..........:1:20\nIMDb URL .........:http://www.imdb.com/title/tt1857605/\nLanguage .........:English\nFile Size ........:990mb\nRelease Date: 2013\nSource: Your Supplier\nFile Type: Single AVI\nPS3 Compatible: You still whining about your Ps3\nGenre: Sports/Thriller\nID: 0\nFormat: MPEG-4 Visual\nFormat profile: Advanced Simple@L5\nFormat settings, BVOP: Yes\nFormat settings, QPel: No\nFormat settings, GMC: No warppoints\nFormat settings, Matrix: Custom\nCodec ID: XVID\nCodec ID/Hint: XviD\nDuration: 1h 20mn\nBit rate: 1380kbps\nWidth: 680pixels\nHeight: 384pixels\nDisplay aspect ratio: 16:9\nFrame rate: 29.000fps\nColor space: YUV\nChroma subsampling: 4:2:0\nBit depth: 8 bits\nScan type: Progressive\nBits/(Pixel*Frame): 0.234\nStream size: 892 MiB (86%)\nWriting library: XviD 1.2.1 (UTC 2008-12-04)\nID: 1\nFormat: AC3\nFormat/Info: MPEG\nMode extension: CM (complete main)\nCodec ID: 2000\nDuration: 1h 28mn\nBit rate mode: Constant\nBit rate: 128kbps\nChannel(s): 6channels\nChannel positions: Front: L R\nSampling rate: 48.0 KHz\nBit depth: 16 bits\nStream size: 302 MiB\nAlignment: Aligned on interleaves\nInterleave, duration: 42 ms (1.00 video frame)\nInterleave, preload duration: 512 ms\n3 Weeks To Daytona is the story of a down on his luck stock car racer with one dream left to hold onto: drive with the best. Unfortunately, with a busted car, zero money, and a bad job, Chucks limelight could be fading fast. When a final chance falls his way, can he patch things up with his son, crew chief, and turn himself around before its too late?","torrent":{"xt":"urn:btih:67205119cbca82b4d2b8372c72745518dcdec6b9","amp;dn":"3+Weeks+To+Daytona+2013+LIMITED+DVDRip+Xvid+AC3+UnKnOwN","amp;tr":["udp%3A%2F%2Ftracker.openbittorrent.com%3A80","udp%3A%2F%2Fopen.demonii.com%3A1337","udp%3A%2F%2Ftracker.coppersurfer.tk%3A6969","udp%3A%2F%2Fexodus.desync.com%3A6969"],"infoHash":"67205119cbca82b4d2b8372c72745518dcdec6b9","infoHashBuffer":{"type":"Buffer","data":[103,32,81,25,203,202,130,180,210,184,55,44,114,116,85,24,220,222,198,185]},"announce":[],"urlList":[]}}